<?xml version="1.0" encoding="UTF-8" standalone="no"?>
<svg t="1678548855703" class="icon" viewBox="0 0 1024 1024" version="1.1" xmlns="http://www.w3.org/2000/svg" p-id="7857" width="200" height="200">
	<path d="M77.44 583.04c-4.48 0-7.68-3.2-7.68-7.68s3.2-7.68 7.68-7.68l855.68-0.64c4.48 0 7.68 3.2 7.68 7.68s-3.2 7.68-7.68 7.68l-855.68 0.64zM508.8 416.64c-3.2 0-6.4-1.92-7.04-5.12-1.28-3.84 0.64-8.32 5.12-9.6l8.32-2.56c3.84-1.28 8.32 0.64 9.6 5.12 1.28 3.84-0.64 8.32-5.12 9.6l-8.32 1.92c-0.64 0-1.92 0.64-2.56 0.64zM645.12 371.84c-3.2 0-6.4-1.92-7.04-5.12-1.28-3.84 0.64-8.32 5.12-9.6l8.32-2.56c3.84-1.28 8.32 0.64 9.6 5.12 1.28 3.84-0.64 8.32-5.12 9.6l-8.32 2.56h-2.56zM519.68 437.76c-2.56 0-4.48-1.28-6.4-3.2-2.56-3.2-1.92-8.32 1.92-10.88l7.04-5.12c3.2-2.56 8.32-1.92 10.88 1.92 2.56 3.2 1.92 8.32-1.92 10.88l-7.04 5.12c-1.28 0.64-3.2 1.28-4.48 1.28zM635.52 353.28c-2.56 0-4.48-1.28-6.4-3.2-2.56-3.2-1.92-8.32 1.92-10.88l7.04-5.12c3.2-2.56 8.32-1.92 10.88 1.92 2.56 3.2 1.92 8.32-1.92 10.88l-7.04 5.12c-1.28 0.64-3.2 1.28-4.48 1.28zM536.32 454.4c-1.28 0-3.2-0.64-4.48-1.28-3.2-2.56-3.84-7.04-1.92-10.88l5.12-7.04c2.56-3.2 7.04-3.84 10.88-1.92 3.2 2.56 3.84 7.04 1.92 10.88l-5.12 7.04c-1.28 1.92-3.84 3.2-6.4 3.2zM620.16 338.56c-1.28 0-3.2-0.64-4.48-1.28-3.2-2.56-3.84-7.04-1.92-10.88l5.12-7.04c2.56-3.2 7.04-3.84 10.88-1.92 3.2 2.56 3.84 7.04 1.92 10.88l-5.12 7.04c-1.28 1.92-3.84 3.2-6.4 3.2zM557.44 465.28c-0.64 0-1.28 0-2.56-0.64-3.84-1.28-6.4-5.76-5.12-9.6l2.56-8.32c1.28-3.84 5.76-6.4 9.6-5.12 3.84 1.28 6.4 5.76 5.12 9.6l-2.56 8.32c-0.64 3.2-3.84 5.76-7.04 5.76zM601.6 328.96c-0.64 0-1.28 0-2.56-0.64-3.84-1.28-6.4-5.76-5.12-9.6l2.56-8.32c1.28-3.84 5.76-6.4 9.6-5.12 3.84 1.28 6.4 5.76 5.12 9.6l-2.56 8.32c-0.64 3.84-3.84 5.76-7.04 5.76zM581.12 468.48c-4.48 0-7.68-3.2-7.68-7.68v-8.32c0-4.48 3.2-7.68 7.68-7.68s7.68 3.2 7.68 7.68V460.8c0 4.48-3.84 7.68-7.68 7.68zM581.12 325.76c-4.48 0-7.68-3.2-7.68-7.68v-8.32c0-4.48 3.2-7.68 7.68-7.68s7.68 3.2 7.68 7.68v8.32c-0.64 4.48-3.84 7.68-7.68 7.68zM504.96 392.96c-4.48 0-7.68-3.2-7.68-7.68s3.2-7.68 7.68-7.68h8.32c4.48 0 7.68 3.2 7.68 7.68s-3.2 7.68-7.68 7.68h-8.32zM648.32 392.96c-4.48 0-7.68-3.2-7.68-7.68s3.2-7.68 7.68-7.68h8.32c4.48 0 7.68 3.2 7.68 7.68s-3.2 7.68-7.68 7.68h-8.32zM604.16 465.28c-3.2 0-6.4-1.92-7.04-5.12l-2.56-8.32c-1.28-3.84 0.64-8.32 5.12-9.6 3.84-1.28 8.32 0.64 9.6 5.12l2.56 8.32c1.28 3.84-0.64 8.32-5.12 9.6-0.64-0.64-1.28 0-2.56 0zM625.28 454.4c-2.56 0-4.48-1.28-6.4-3.2l-4.48-7.04c-2.56-3.2-1.92-8.32 1.92-10.88 3.2-2.56 8.32-1.92 10.88 1.92l5.12 7.04c2.56 3.2 1.92 8.32-1.92 10.88-1.92 0.64-3.2 1.28-5.12 1.28zM642.56 437.12c-1.28 0-3.2-0.64-4.48-1.28l-7.04-5.12c-3.2-2.56-3.84-7.04-1.92-10.88 2.56-3.2 7.04-3.84 10.88-1.92l7.04 5.12c3.2 2.56 3.84 7.04 1.92 10.88-1.92 2.56-4.48 3.2-6.4 3.2zM652.8 416c-0.64 0-1.28 0-2.56-0.64l-8.32-2.56c-3.84-1.28-6.4-5.76-5.12-9.6 1.28-3.84 5.76-6.4 9.6-5.12l8.32 2.56c3.84 1.28 6.4 5.76 5.12 9.6-0.64 3.84-3.84 5.76-7.04 5.76z" fill="#211D1C" p-id="7858"></path>
	<path d="M648.32 392.96c-4.48 0-7.68-3.2-7.68-7.68s3.2-7.68 7.68-7.68h8.32c4.48 0 7.68 3.2 7.68 7.68s-3.2 7.68-7.68 7.68h-8.32zM517.12 372.48c-0.64 0-1.28 0-2.56-0.64l-8.32-2.56c-3.84-1.28-6.4-5.76-5.12-9.6 1.28-3.84 5.76-6.4 9.6-5.12l8.32 2.56c3.84 1.28 6.4 5.76 5.12 9.6-1.28 3.2-3.84 5.76-7.04 5.76zM526.72 353.28c-1.28 0-3.2-0.64-4.48-1.28l-7.04-5.12c-3.2-2.56-3.84-7.04-1.92-10.88 2.56-3.2 7.04-3.84 10.88-1.92l7.04 5.12c3.2 2.56 3.84 7.04 1.92 10.88-1.92 2.56-4.48 3.2-6.4 3.2zM541.44 338.56c-2.56 0-4.48-1.28-6.4-3.2l-5.12-7.04c-2.56-3.2-1.92-8.32 1.92-10.88 3.2-2.56 8.32-1.92 10.88 1.92l5.12 7.04c2.56 3.2 1.92 8.32-1.92 10.88-1.28 0.64-3.2 1.28-4.48 1.28zM560 328.96c-3.2 0-6.4-1.92-7.04-5.12l-2.56-8.32c-1.28-3.84 0.64-8.32 5.12-9.6 3.84-1.28 8.32 0.64 9.6 5.12l2.56 8.32c1.28 3.84-0.64 8.32-5.12 9.6h-2.56zM504.96 392.96c-4.48 0-7.68-3.2-7.68-7.68s3.2-7.68 7.68-7.68h8.32c4.48 0 7.68 3.2 7.68 7.68s-3.2 7.68-7.68 7.68h-8.32zM581.12 430.72c-12.16 0-23.68-4.48-32-13.44-8.32-8.32-13.44-19.84-13.44-32s4.48-23.68 13.44-32c8.32-8.32 19.84-13.44 32-13.44s23.68 4.48 32 13.44c8.32 8.32 13.44 19.84 13.44 32s-4.48 23.68-13.44 32c-8.32 8.96-19.84 13.44-32 13.44z m0-75.52c-8.32 0-16 3.2-21.76 8.96-5.76 5.76-8.96 13.44-8.96 21.12 0 8.32 3.2 16 8.96 21.12 5.76 5.76 13.44 8.96 21.12 8.96 8.32 0 16-3.2 21.12-8.96 5.76-5.76 8.96-13.44 8.96-21.12 0-8.32-3.2-16-8.96-21.12-5.12-5.76-12.8-8.96-20.48-8.96z" fill="#211D1C" p-id="7859"></path>
	<path d="M78.08 793.6c-4.48 0-7.68-3.2-7.68-7.68l-0.64-648.96c0-1.92 0.64-3.84 1.92-5.12 1.28-1.28 3.2-1.92 5.12-1.92l855.68-0.64c4.48 0 7.68 3.2 7.68 7.68l0.64 648.96c0 1.92-0.64 3.84-1.92 5.12-1.28 1.28-3.2 1.92-5.12 1.92l-855.68 0.64z m7.04-648.96l0.64 633.6 840.32-0.64-0.64-633.6-840.32 0.64z" fill="#211D1C" p-id="7860"></path>
	<path d="M104.32 841.6c-2.56 0-5.12-1.28-6.4-3.84l-26.88-48c-1.92-3.84-0.64-8.32 3.2-10.24 3.84-1.92 8.32-0.64 10.24 3.2l24.32 44.16 864.64-0.64-0.64-657.92-44.16-24.32c-3.84-1.92-5.12-6.4-3.2-10.24 1.92-3.84 6.4-5.12 10.24-3.2l48 26.88c2.56 1.28 3.84 3.84 3.84 6.4l0.64 670.08c0 1.92-0.64 3.84-1.92 5.12-1.28 1.28-3.2 1.92-5.12 1.92l-876.8 0.64z" fill="#211D1C" p-id="7861"></path>
	<path d="M259.2 260.48c-4.48 0-7.68-3.2-7.68-7.68v-37.76c0-4.48 3.2-7.68 7.68-7.68h37.76c1.92 0 3.84 0.64 5.12 1.92 1.28 1.28 1.92 3.2 1.92 5.12v37.76c0 1.92-0.64 3.84-1.92 5.12-1.28 1.28-3.2 1.92-5.12 1.92l-37.76 1.28z m7.04-37.76v22.4h23.04v-23.04l-23.04 0.64zM713.6 260.48c-4.48 0-7.68-3.2-7.68-7.68v-37.76c0-4.48 3.2-7.68 7.68-7.68h37.76c1.92 0 3.84 0.64 5.12 1.92 1.28 1.28 1.92 3.2 1.92 5.12v37.76c0 1.92-0.64 3.84-1.92 5.12-1.28 1.28-3.2 1.92-5.12 1.92l-37.76 1.28z m7.04-37.76v22.4h23.04v-23.04l-23.04 0.64zM486.4 260.48c-4.48 0-7.68-3.2-7.68-7.68v-37.76c0-4.48 3.2-7.68 7.68-7.68h37.76c1.92 0 3.84 0.64 5.12 1.92 1.28 1.28 1.92 3.2 1.92 5.12v37.76c0 4.48-3.2 7.68-7.68 7.68l-37.12 0.64z m7.04-37.76v22.4h23.04v-23.04l-23.04 0.64zM259.2 487.68c-4.48 0-7.68-3.2-7.68-7.68v-37.76c0-4.48 3.2-7.68 7.68-7.68h37.76c1.92 0 3.84 0.64 5.12 1.92 1.28 1.28 1.92 3.2 1.92 5.12v37.76c0 1.92-0.64 3.84-1.92 5.12-1.28 1.28-3.2 1.92-5.12 1.92l-37.76 1.28z m7.68-37.76v22.4h23.04v-23.04l-23.04 0.64zM259.2 714.88c-4.48 0-7.68-3.2-7.68-7.68v-37.76c0-4.48 3.2-7.68 7.68-7.68h37.76c1.92 0 3.84 0.64 5.12 1.92 1.28 1.28 1.92 3.2 1.92 5.12v37.76c0 1.92-0.64 3.84-1.92 5.12-1.28 1.28-3.2 1.92-5.12 1.92l-37.76 1.28z m7.68-37.76v22.4h23.04v-23.04l-23.04 0.64zM486.4 714.88c-4.48 0-7.68-3.2-7.68-7.68v-37.76c0-4.48 3.2-7.68 7.68-7.68h37.76c1.92 0 3.84 0.64 5.12 1.92 1.28 1.28 1.92 3.2 1.92 5.12v37.76c0 4.48-3.2 7.68-7.68 7.68l-37.12 0.64z m7.68-37.76v22.4h23.04v-23.04l-23.04 0.64zM713.6 714.88c-4.48 0-7.68-3.2-7.68-7.68v-37.76c0-4.48 3.2-7.68 7.68-7.68h37.76c1.92 0 3.84 0.64 5.12 1.92 1.28 1.28 1.92 3.2 1.92 5.12v37.76c0 1.92-0.64 3.84-1.92 5.12-1.28 1.28-3.2 1.92-5.12 1.92l-37.76 1.28z m7.68-37.76v22.4h23.04v-23.04l-23.04 0.64zM713.6 487.68c-4.48 0-7.68-3.2-7.68-7.68v-37.76c0-4.48 3.2-7.68 7.68-7.68h37.76c1.92 0 3.84 0.64 5.12 1.92 1.28 1.28 1.92 3.2 1.92 5.12v37.76c0 1.92-0.64 3.84-1.92 5.12-1.28 1.28-3.2 1.92-5.12 1.92l-37.76 1.28z m7.68-37.76v22.4h23.04v-23.04l-23.04 0.64z" fill="#00ABE0" p-id="7862"></path>
	<path d="M325.12 241.92h-1.28c-4.48 0-7.68-3.2-7.68-7.68s3.2-7.68 7.68-7.68h1.28c4.48 0 7.68 3.2 7.68 7.68s-3.84 7.68-7.68 7.68zM344.32 241.92c-4.48 0-7.68-3.2-7.68-7.68s3.2-7.68 7.68-7.68h3.2c4.48 0 7.68 3.2 7.68 7.68s-3.2 7.68-7.68 7.68h-3.2z m26.24 0h-3.2c-4.48 0-7.68-3.2-7.68-7.68s3.2-7.68 7.68-7.68h3.2c4.48 0 7.68 3.2 7.68 7.68 0 3.84-3.84 7.68-7.68 7.68z m22.4 0h-3.2c-4.48 0-7.68-3.2-7.68-7.68s3.2-7.68 7.68-7.68h3.2c4.48 0 7.68 3.2 7.68 7.68 0 3.84-3.2 7.68-7.68 7.68z m23.04 0h-3.2c-4.48 0-7.68-3.2-7.68-7.68s3.2-7.68 7.68-7.68h3.2c4.48 0 7.68 3.2 7.68 7.68-0.64 3.84-3.84 7.68-7.68 7.68z m22.4 0H435.2c-4.48 0-7.68-3.2-7.68-7.68s3.2-7.68 7.68-7.68h3.2c4.48 0 7.68 3.2 7.68 7.68 0 3.84-3.2 7.68-7.68 7.68zM457.6 241.28c-4.48 0-7.68-3.2-7.68-7.68s3.2-7.68 7.68-7.68h1.28c4.48 0 7.68 3.2 7.68 7.68s-3.2 7.68-7.68 7.68h-1.28z" fill="#00ABE0" p-id="7863"></path>
	<path d="M552.32 241.28h-1.28c-4.48 0-7.68-3.2-7.68-7.68s3.2-7.68 7.68-7.68h1.28c4.48 0 7.68 3.2 7.68 7.68s-3.84 7.68-7.68 7.68zM571.52 241.28c-4.48 0-7.68-3.2-7.68-7.68s3.2-7.68 7.68-7.68h3.2c4.48 0 7.68 3.2 7.68 7.68s-3.2 7.68-7.68 7.68h-3.2z m26.24 0h-3.2c-4.48 0-7.68-3.2-7.68-7.68s3.2-7.68 7.68-7.68h3.2c4.48 0 7.68 3.2 7.68 7.68s-3.84 7.68-7.68 7.68z m22.4 0h-3.2c-4.48 0-7.68-3.2-7.68-7.68s3.2-7.68 7.68-7.68h3.2c4.48 0 7.68 3.2 7.68 7.68s-3.2 7.68-7.68 7.68z m23.04 0h-3.2c-4.48 0-7.68-3.2-7.68-7.68s3.2-7.68 7.68-7.68h3.2c4.48 0 7.68 3.2 7.68 7.68s-3.84 7.68-7.68 7.68z m22.4 0h-3.2c-4.48 0-7.68-3.2-7.68-7.68s3.2-7.68 7.68-7.68h3.2c4.48 0 7.68 3.2 7.68 7.68s-3.2 7.68-7.68 7.68zM685.44 241.28c-4.48 0-7.68-3.2-7.68-7.68s3.2-7.68 7.68-7.68h1.28c4.48 0 7.68 3.2 7.68 7.68s-3.2 7.68-7.68 7.68h-1.28z" fill="#00ABE0" p-id="7864"></path>
	<path d="M325.12 696.32h-1.28c-4.48 0-7.68-3.2-7.68-7.68s3.2-7.68 7.68-7.68h1.28c4.48 0 7.68 3.2 7.68 7.68 0 3.84-3.2 7.68-7.68 7.68zM344.96 696.32c-4.48 0-7.68-3.2-7.68-7.68s3.2-7.68 7.68-7.68h3.2c4.48 0 7.68 3.2 7.68 7.68s-3.2 7.68-7.68 7.68h-3.2z m25.6 0h-3.2c-4.48 0-7.68-3.2-7.68-7.68s3.2-7.68 7.68-7.68h3.2c4.48 0 7.68 3.2 7.68 7.68s-3.2 7.68-7.68 7.68z m23.04 0H390.4c-4.48 0-7.68-3.2-7.68-7.68s3.2-7.68 7.68-7.68h3.2c4.48 0 7.68 3.2 7.68 7.68 0 3.84-3.84 7.68-7.68 7.68z m22.4 0h-3.2c-4.48 0-7.68-3.2-7.68-7.68s3.2-7.68 7.68-7.68h3.2c4.48 0 7.68 3.2 7.68 7.68s-3.2 7.68-7.68 7.68z m23.04 0h-3.2c-4.48 0-7.68-3.2-7.68-7.68s3.2-7.68 7.68-7.68h3.2c4.48 0 7.68 3.2 7.68 7.68-0.64 3.84-3.84 7.68-7.68 7.68zM458.24 696.32c-4.48 0-7.68-3.2-7.68-7.68s3.2-7.68 7.68-7.68h1.28c4.48 0 7.68 3.2 7.68 7.68s-3.2 7.68-7.68 7.68h-1.28z" fill="#00ABE0" p-id="7865"></path>
	<path d="M552.32 695.68h-1.28c-4.48 0-7.68-3.2-7.68-7.68s3.2-7.68 7.68-7.68h1.28c4.48 0 7.68 3.2 7.68 7.68s-3.2 7.68-7.68 7.68zM572.16 695.68c-4.48 0-7.68-3.2-7.68-7.68s3.2-7.68 7.68-7.68h3.2c4.48 0 7.68 3.2 7.68 7.68s-3.2 7.68-7.68 7.68h-3.2z m25.6 0h-3.2c-4.48 0-7.68-3.2-7.68-7.68s3.2-7.68 7.68-7.68h3.2c4.48 0 7.68 3.2 7.68 7.68s-3.2 7.68-7.68 7.68z m23.04 0h-3.2c-4.48 0-7.68-3.2-7.68-7.68s3.2-7.68 7.68-7.68h3.2c4.48 0 7.68 3.2 7.68 7.68s-3.84 7.68-7.68 7.68z m22.4 0h-3.2c-4.48 0-7.68-3.2-7.68-7.68s3.2-7.68 7.68-7.68h3.2c4.48 0 7.68 3.2 7.68 7.68s-3.2 7.68-7.68 7.68z m23.04 0h-3.2c-4.48 0-7.68-3.2-7.68-7.68s3.2-7.68 7.68-7.68h3.2c4.48 0 7.68 3.2 7.68 7.68-0.64 4.48-3.84 7.68-7.68 7.68zM685.44 695.68c-4.48 0-7.68-3.2-7.68-7.68s3.2-7.68 7.68-7.68h1.28c4.48 0 7.68 3.2 7.68 7.68s-3.2 7.68-7.68 7.68h-1.28z" fill="#00ABE0" p-id="7866"></path>
	<path d="M277.76 288.64c-4.48 0-7.68-3.2-7.68-7.68v-1.28c0-4.48 3.2-7.68 7.68-7.68s7.68 3.2 7.68 7.68v1.92c0 3.84-3.2 7.04-7.68 7.04zM277.76 402.56c-4.48 0-7.68-3.2-7.68-7.68v-3.2c0-4.48 3.2-7.68 7.68-7.68s7.68 3.2 7.68 7.68v3.2c0 3.84-3.2 7.68-7.68 7.68z m0-23.04c-4.48 0-7.68-3.2-7.68-7.68v-3.2c0-4.48 3.2-7.68 7.68-7.68s7.68 3.2 7.68 7.68v3.2c0 4.48-3.2 7.68-7.68 7.68z m0-22.4c-4.48 0-7.68-3.2-7.68-7.68v-3.2c0-4.48 3.2-7.68 7.68-7.68s7.68 3.2 7.68 7.68v3.2c0 3.84-3.2 7.68-7.68 7.68z m0-23.04c-4.48 0-7.68-3.2-7.68-7.68v-3.2c0-4.48 3.2-7.68 7.68-7.68s7.68 3.2 7.68 7.68v3.2c0 4.48-3.2 7.68-7.68 7.68z m0-22.4c-4.48 0-7.68-3.2-7.68-7.68V300.8c0-4.48 3.2-7.68 7.68-7.68s7.68 3.2 7.68 7.68v3.2c0 4.48-3.2 7.68-7.68 7.68zM277.76 423.04c-4.48 0-7.68-3.2-7.68-7.68v-1.28c0-4.48 3.2-7.68 7.68-7.68s7.68 3.2 7.68 7.68v1.92c0 3.84-3.2 7.04-7.68 7.04z" fill="#00ABE0" p-id="7867"></path>
	<path d="M278.4 515.84c-4.48 0-7.68-3.2-7.68-7.68v-1.28c0-4.48 3.2-7.68 7.68-7.68s7.68 3.2 7.68 7.68v1.28c-0.64 4.48-3.84 7.68-7.68 7.68zM278.4 629.76c-4.48 0-7.68-3.2-7.68-7.68v-3.2c0-4.48 3.2-7.68 7.68-7.68s7.68 3.2 7.68 7.68v3.2c-0.64 3.84-3.84 7.68-7.68 7.68z m0-23.04c-4.48 0-7.68-3.2-7.68-7.68v-3.2c0-4.48 3.2-7.68 7.68-7.68s7.68 3.2 7.68 7.68v3.2c-0.64 4.48-3.84 7.68-7.68 7.68z m0-22.4c-4.48 0-7.68-3.2-7.68-7.68v-3.2c0-4.48 3.2-7.68 7.68-7.68s7.68 3.2 7.68 7.68v3.2c-0.64 3.84-3.84 7.68-7.68 7.68z m0-23.04c-4.48 0-7.68-3.2-7.68-7.68V550.4c0-4.48 3.2-7.68 7.68-7.68s7.68 3.2 7.68 7.68v3.2c-0.64 4.48-3.84 7.68-7.68 7.68z m0-22.4c-4.48 0-7.68-3.2-7.68-7.68v-3.2c0-4.48 3.2-7.68 7.68-7.68s7.68 3.2 7.68 7.68v3.2c-0.64 4.48-3.84 7.68-7.68 7.68zM278.4 650.24c-4.48 0-7.68-3.2-7.68-7.68v-1.28c0-4.48 3.2-7.68 7.68-7.68s7.68 3.2 7.68 7.68v1.28c0 4.48-3.84 7.68-7.68 7.68z" fill="#00ABE0" p-id="7868"></path>
	<path d="M732.16 288.64c-4.48 0-7.68-3.2-7.68-7.68v-1.28c0-4.48 3.2-7.68 7.68-7.68s7.68 3.2 7.68 7.68v1.28c0 4.48-3.2 7.68-7.68 7.68zM732.16 401.92c-4.48 0-7.68-3.2-7.68-7.68v-3.2c0-4.48 3.2-7.68 7.68-7.68s7.68 3.2 7.68 7.68v3.2c0 4.48-3.2 7.68-7.68 7.68z m0-22.4c-4.48 0-7.68-3.2-7.68-7.68v-3.2c0-4.48 3.2-7.68 7.68-7.68s7.68 3.2 7.68 7.68v3.2c0 3.84-3.2 7.68-7.68 7.68z m0-23.04c-4.48 0-7.68-3.2-7.68-7.68V345.6c0-4.48 3.2-7.68 7.68-7.68s7.68 3.2 7.68 7.68v3.2c0 4.48-3.2 7.68-7.68 7.68z m0-22.4c-4.48 0-7.68-3.2-7.68-7.68v-3.2c0-4.48 3.2-7.68 7.68-7.68s7.68 3.2 7.68 7.68v3.2c0 3.84-3.2 7.68-7.68 7.68z m0-23.04c-4.48 0-7.68-3.2-7.68-7.68v-3.2c0-4.48 3.2-7.68 7.68-7.68s7.68 3.2 7.68 7.68v3.2c0 4.48-3.2 7.68-7.68 7.68zM732.16 423.04c-4.48 0-7.68-3.2-7.68-7.68v-1.28c0-4.48 3.2-7.68 7.68-7.68s7.68 3.2 7.68 7.68v1.28c0 4.48-3.2 7.68-7.68 7.68z" fill="#00ABE0" p-id="7869"></path>
	<path d="M732.8 515.84c-4.48 0-7.68-3.2-7.68-7.68v-1.28c0-4.48 3.2-7.68 7.68-7.68s7.68 3.2 7.68 7.68v1.28c-0.64 4.48-3.84 7.68-7.68 7.68zM732.8 629.12c-4.48 0-7.68-3.2-7.68-7.68v-3.2c0-4.48 3.2-7.68 7.68-7.68s7.68 3.2 7.68 7.68v3.2c0 4.48-3.84 7.68-7.68 7.68z m0-22.4c-4.48 0-7.68-3.2-7.68-7.68v-3.2c0-4.48 3.2-7.68 7.68-7.68s7.68 3.2 7.68 7.68v3.2c0 3.84-3.84 7.68-7.68 7.68z m0-23.04c-4.48 0-7.68-3.2-7.68-7.68v-3.2c0-4.48 3.2-7.68 7.68-7.68s7.68 3.2 7.68 7.68v3.2c-0.64 4.48-3.84 7.68-7.68 7.68z m0-22.4c-4.48 0-7.68-3.2-7.68-7.68V550.4c0-4.48 3.2-7.68 7.68-7.68s7.68 3.2 7.68 7.68v3.2c-0.64 3.84-3.84 7.68-7.68 7.68z m0-23.04c-4.48 0-7.68-3.2-7.68-7.68v-3.2c0-4.48 3.2-7.68 7.68-7.68s7.68 3.2 7.68 7.68v3.2c-0.64 4.48-3.84 7.68-7.68 7.68zM732.8 650.24c-4.48 0-7.68-3.2-7.68-7.68v-1.28c0-4.48 3.2-7.68 7.68-7.68s7.68 3.2 7.68 7.68v1.28c0 4.48-3.84 7.68-7.68 7.68z" fill="#00ABE0" p-id="7870"></path>
	<path d="M323.84 583.04c-1.28 0-1.92 0-3.2-0.64-3.84-1.92-5.12-6.4-3.84-10.24l107.52-227.2c1.28-2.56 3.84-4.48 7.04-4.48 3.2 0 5.76 1.92 7.04 4.48l108.16 227.2c1.92 3.84 0 8.32-3.84 10.24-3.84 1.92-8.32 0-10.24-3.84L431.36 366.08 330.88 578.56c-1.28 2.56-4.48 4.48-7.04 4.48zM581.12 582.4c-3.84 0-7.68-3.2-7.68-7.04v-0.64c0-24.96 20.48-45.44 45.44-45.44 24.96 0 45.44 20.48 45.44 45.44l-7.68 0.64h-7.68c0-17.28-13.44-30.72-30.08-30.72S588.8 558.08 588.8 574.72c0 3.84-3.2 7.68-7.68 7.68z" fill="#211D1C" p-id="7871"></path>
	<path d="M686.72 582.4c-4.48 0-7.68-3.84-7.68-7.68 0-8.32-3.2-16-8.96-21.76-5.76-5.76-13.44-8.96-21.12-8.96-4.48 0-8.32 0.64-12.16 2.56-3.84 1.92-8.32 0-10.24-3.84-1.92-3.84 0-8.32 3.84-10.24 5.76-2.56 11.52-3.84 17.92-3.84 12.16 0 23.68 4.48 32 13.44 8.32 8.32 13.44 19.84 13.44 32v0.64c0.64 4.48-2.56 7.68-7.04 7.68zM981.12 840.96c-1.92 0-3.84-0.64-5.12-1.92l-48-48c-3.2-3.2-3.2-7.68 0-10.88s7.68-3.2 10.88 0l48 48c3.2 3.2 3.2 7.68 0 10.88-1.28 1.28-3.84 1.92-5.76 1.92z" fill="#211D1C" p-id="7872"></path>
</svg>